#!OML:ASF E:\Style4\Style4.ASF
:FULLY-SPECIFIED
:DEGREES
591
root -0.0595722 17.8083 -1.24942 0.830787 -1.48353 1.87505
lowerback 6.01725 1.75311 -0.158067
upperback 1.84436 2.31647 -0.324245
thorax -1.46528 1.15618 -0.410062
lowerneck -4.42441 -4.96988 -5.8062
upperneck 6.43054 -6.56904 4.60494
head 3.26577 -3.24957 2.25317
rclavicle 1.75924e-014 -1.19271e-015
rhumerus 56.3063 47.2065 -16.2822
rradius 109.299
rwrist -46.1729
rhand -2.13652 23.4773
rfingers 7.12502
rthumb 23.5424 -5.10182
lclavicle 1.75924e-014 -1.19271e-015
lhumerus 79.365 -55.4574 -7.38482
lradius 82.389
lwrist 24.279
lhand -13.1011 12.9906
lfingers 7.12502
lthumb 12.9958 42.5659
rfemur -13.332 4.68301 16.8407
rtibia 31.7425
rfoot -17.9101 -13.2028
rtoes -12.1481
lfemur -11.761 -2.39959 -20.5663
ltibia 29.8075
lfoot -18.8006 10.0479
ltoes -15.9035
592
root -0.0551202 17.8106 -1.2481 0.855342 -1.51874 1.87541
lowerback 5.96939 1.73482 -0.150137
upperback 1.85466 2.29345 -0.290495
thorax -1.42927 1.14472 -0.3764
lowerneck -4.3937 -4.97848 -5.82949
upperneck 6.36904 -6.57865 4.60417
head 3.24035 -3.25525 2.25743
rclavicle 5.91384e-015 -1.39149e-015
rhumerus 55.5696 46.1334 -17.845
rradius 108.805
rwrist -46.6822
rhand -2.72175 23.3204
rfingers 7.12502
rthumb 22.981 -5.32969
lclavicle 5.91384e-015 -1.39149e-015
lhumerus 81.002 -55.8849 -9.46034
lradius 82.9786
lwrist 24.055
lhand -12.9501 12.549
lfingers 7.12502
lthumb 13.1413 42.1149
rfemur -13.3395 4.6856 16.8214
rtibia 31.7185
rfoot -17.8896 -13.1846
rtoes -12.2717
lfemur -11.7497 -2.37985 -20.5828
ltibia 29.7627
lfoot -18.8554 10.0824
ltoes -16.0717
593
root -0.0500166 17.8133 -1.24665 0.898623 -1.55115 1.81871
lowerback 5.90309 1.70155 -0.028071
upperback 1.86425 2.25707 -0.261413
thorax -1.37917 1.12664 -0.409844
lowerneck -4.3759 -4.98823 -5.94704
upperneck 6.32166 -6.5875 4.66599
head 3.2299 -3.26069 2.2998
rclavicle -1.49089e-015 5.96354e-016
rhumerus 54.9431 45.0896 -19.3414
rradius 108.248
rwrist -47.2003
rhand -3.46959 22.797
rfingers 7.12502
rthumb 22.2632 -5.94064
lclavicle -1.49089e-015 5.96354e-016
lhumerus 82.7092 -56.1577 -11.5701
lradius 83.751
lwrist 24.0503
lhand -12.7369 12.4502
lfingers 7.12502
lthumb 13.3468 42.0027
rfemur -13.3612 4.67326 16.8562
rtibia 31.6726
rfoot -17.8822 -13.0907
rtoes -12.0581
lfemur -11.7601 -2.37223 -20.5392
ltibia 29.7254
lfoot -18.8719 10.1981
ltoes -16.5398
594
root -0.0448383 17.8146 -1.24394 0.932504 -1.60679 1.81795
lowerback 5.85142 1.70732 -0.0248683
upperback 1.85405 2.26577 -0.219799
thorax -1.36242 1.13095 -0.368053
lowerneck -4.2792 -5.0194 -6.0179
upperneck 6.22377 -6.62574 4.65372
head 3.18292 -3.28285 2.30877
rclavicle -2.47238e-014 9.54166e-015
rhumerus 54.2728 44.1577 -20.7483
rradius 107.586
rwrist -47.5173
rhand -3.95663 22.566
rfingers 7.12502
rthumb 21.7956 -6.22671
lclavicle -2.47238e-014 9.54166e-015
lhumerus 84.7318 -56.286 -13.8904
lradius 84.6644
lwrist 24.1873
lhand -12.6627 12.5639
lfingers 7.12502
lthumb 13.4183 42.1118
rfemur -13.3672 4.67636 16.8317
rtibia 31.612
rfoot -17.8161 -13.0493
rtoes -12.4195
lfemur -11.7647 -2.35324 -20.5599
ltibia 29.701
lfoot -18.9027 10.2378
ltoes -16.4571
595
root -0.0422479 17.8148 -1.24169 0.937593 -1.66672 1.79098
lowerback 5.862 1.84974 0.0803664
upperback 1.82317 2.45938 -0.328793
thorax -1.3897 1.22767 -0.552957
lowerneck -4.11872 -5.15913 -5.68471
upperneck 6.11184 -6.84151 4.65581
head 3.11085 -3.38359 2.24164
rclavicle 2.75814e-015 7.15625e-015
rhumerus 52.9304 43.1237 -22.65
rradius 106.719
rwrist -47.6387
rhand -4.39033 22.6261
rfingers 7.12502
rthumb 21.3791 -6.21443
lclavicle 2.75814e-015 7.15625e-015
lhumerus 87.4155 -56.2314 -16.8553
lradius 85.6494
lwrist 24.2261
lhand -12.6665 12.4889
lfingers 7.12502
lthumb 13.4147 42.037
rfemur -13.3561 4.72611 16.8566
rtibia 31.5627
rfoot -17.7365 -13.086
rtoes -12.761
lfemur -11.7521 -2.31009 -20.5425
ltibia 29.6835
lfoot -18.8959 10.2942
ltoes -16.6542
